<?xml version="1.0" encoding="UTF-8"?>
<svg version="1.1" viewBox="0 0 527.95 467.2" xml:space="preserve" xmlns="http://www.w3.org/2000/svg" xmlns:cc="http://creativecommons.org/ns#" xmlns:dc="http://purl.org/dc/elements/1.1/" xmlns:rdf="http://www.w3.org/1999/02/22-rdf-syntax-ns#"><metadata><rdf:RDF><cc:Work rdf:about=""><dc:format>image/svg+xml</dc:format><dc:type rdf:resource="http://purl.org/dc/dcmitype/StillImage"/><dc:title/></cc:Work></rdf:RDF></metadata><g transform="matrix(1.3333 0 0 -1.3333 0 490.05)"><g transform="scale(.1)" fill-rule="evenodd"><path d="m1874.1 1520.3-3.65-108.89 3.65 0.7zm0 348.73v-28.82l-57.71-443.24c-118.14-40.04-218.95-131.81-257.71-275.33-41.18 14.11-85.37 21.81-131.37 21.81-183.99 0-339.36-122.92-388.61-291.03-40.457 16.668-85.012 25.957-131.55 25.957-54.664 0-106.39-12.777-152.37-35.398-84.492 175.29-131.87 371.85-131.87 579.47 0 580.45 370.35 1074.5 887.58 1258.9 55.67 18.2 111.48 33.07 167.39 44.5 0.55-6.8 1.14-13.61 1.8-20.41-125.5-86.17-197.93-205.05-171.89-364.49l0.15-0.93 0.2-0.92c23.85-110.34 61.61-215.94 118.7-313.63l85.15-145.63-16.7 167.87c-8.18 82.41-5.11 169.95 39.42 238.17l21.54-96.9 0.22-0.85c2.41-8.74 6.33-16.72 11.51-23.98-6.92-6.53-12.56-15-16.3-25.18l-0.24-0.65-0.23-0.67c-36.15-111.18 4.02-223.86 116.04-266.64l1.13-0.43 1.15-0.35c1.53-0.48 3.05-0.88 4.57-1.24zm98.94-449.06c-10.24 0.33-20.51 0.33-30.76-0.04l-3.18 480.11c1.03 2.64 1.85 5.4 2.39 8.24 3.96-1.08 8.05-1.73 12.22-1.95l1.93-0.09 1.92 0.09c4.18 0.22 8.26 0.87 12.22 1.93 1.09-5.77 3.3-11.19 6.39-16.13zm-98.94 420.24 3.65 28.09-3.65 0.73zm0-428.1v108.19l11.65 347.11c12-0.55 23.09 2.51 32.18 7.99l-25.96-460.17c-5.98-0.89-11.94-1.96-17.87-3.12zm168.99 143.12-10.52 312.89c-12.86-2.03-24.94 0.06-35.03 5.01l25.8-457.53c6.63-0.96 13.2-2.11 19.75-3.41zm0 278.06-4.85 35.98c1.17 0.3 2.34 0.63 3.5 0.98l1.17 0.37 0.18 0.08zm0-421.1 4.84-0.96-4.84 144zm363.66 1269.6c517.83-184.1 888.73-678.48 888.73-1259.4 0-207.73-47.43-404.4-132.04-579.8-46.14 22.848-98.08 35.726-153.03 35.726-46.52 0-91.13-9.289-131.57-25.957-49.22 168.11-204.57 291.03-388.59 291.03-46 0-90.18-7.7-131.38-21.81-38.67 143.18-139.15 234.88-256.98 275.07l-58.8 436.58v37.41l0.93 0.35c112.02 42.78 152.18 155.46 116.03 266.64l-0.2 0.67-0.24 0.65c-3 8.16-7.22 15.22-12.35 21.05 6.76 8.32 11.83 17.67 14.66 28.11l0.24 0.85 21.52 96.9c44.56-68.22 47.63-155.76 39.45-238.17l-16.71-167.87 85.13 145.63c57.11 97.69 94.86 203.29 118.72 313.63l0.19 0.92 0.15 0.93c26.04 159.44-46.38 278.32-171.87 364.49 0.65 6.84 1.24 13.68 1.81 20.56 55.45-11.38 110.85-26.1 166.2-44.24" fill="#2d63b3"/><path d="m1955.6 2021.4c-4.04 0.16-7.93 2.66-8.8 8.12-2.95 27.27-4.91 45.4-7.84 72.68-1.29 12.37-7.08 20.05-21.9 22.45-27.45 4.44-62.56 0.93-94.98 15.61-16.5 7.46-30.34 1.15-35.89-13.96-34.61-106.5 13.11-189.91 94.17-220.85 17.14-5.3 32.38 6.72 20.49 20.97-26.09 22.52-72.63 83.69-33 103.06 42.32 14.42 57.43-30.14 70.85-74.44 1.82-7.24 9.15-11.54 16.9-11.95zm0 695.59c-6.73-1.14-12.82-7.06-13.27-17.96-7.36-178.44-7.66-371.85-15.37-552.88-48.88-7.49-124.88 14.59-134.97 51.7l-36.78 165.54c-90.37-74.67-109.65-188.15-96.61-319.29-55.31 94.62-91.48 196.31-114.5 302.82-25.44 155.83 53 263.03 174.39 340.07-37.63 355.83 10.61 696.46 237.11 976.69zm0-773.9c7.73 0.41 15.07 4.71 16.88 11.95 13.43 44.3 28.56 88.86 70.85 74.44 39.61-19.37-6.92-80.54-33.01-103.06-11.88-14.25 3.36-26.27 20.53-20.97 81.05 30.94 128.76 114.35 94.15 220.85-5.56 15.11-19.39 21.42-35.89 13.96-32.43-14.68-67.53-11.17-94.98-15.61-14.81-2.4-20.61-10.08-21.93-22.45-2.9-27.28-4.87-45.41-7.79-72.68-0.89-5.46-4.76-7.96-8.81-8.12zm244.25 743.9c121.37-77.04 199.83-184.24 174.36-340.07-22.99-106.51-59.16-208.2-114.47-302.82 13.03 131.14-6.24 244.62-96.61 319.29l-36.78-165.54c-10.11-37.11-86.09-59.19-134.98-51.7-7.7 181.03-9.41 374.45-17.09 552.88-0.57 13.28-10.15 19.42-18.68 17.96v946.69c3.16 3.9 6.34 7.81 9.57 11.7 221.75-270.27 270.29-651.28 234.68-988.39" fill="#db2225"/><path d="m3327.2 1600.9c346.35 273.22 657.17 546.14 630.92 802.51-26.28 256.39-949.43 220.12-2042-271.92-1092.5-492.04-1950.1-1168.4-1915.1-1510.2 22.816-222.63 418.62-248.59 993.61-103.77l-30.722 33.403c-418.84-97.852-700.8-71.11-726.32 100.7-44.425 299.03 704.48 924.24 1672.4 1396.1 967.93 471.97 1801.6 526.86 1833.3 313.22s-204.59-420.63-432.25-631.16l16.11-128.88" fill="#393d40"/><path d="m942.24 837.77c43.719 0 85.128-10.29 122.13-28.7 42.31 171.3 191.61 297.89 369.19 297.89 50.69 0 99.04-10.3 143.26-29.01 41.82 181.16 198.37 315.85 385.07 315.85h3.28c186.7 0 343.21-134.69 385.03-315.85 22.13 9.33 45.27 16.6 69.24 21.52 23.92 4.9 48.7 7.49 74.03 7.49 177.59 0 326.89-126.59 369.2-297.89 37 18.41 78.42 28.7 122.14 28.7 156.69 0 283.78-132.4 283.78-295.66 0-163.25-127.09-295.66-283.78-295.66h-1114.6-927.93c-156.7 0-283.77 132.41-283.77 295.66 0 163.26 127.07 295.66 283.77 295.66" fill="#393d40"/><path d="m1162.9 924.07c78.16 0 141.55-63.371 141.55-141.56 0-31.66-10.41-60.922-28.02-84.512l68.56 10.699c46.22 7.231 23.05-38.371 44.2-80.07 63.59-125.51 64.78-260.25 29.2-385.37-12.79-45-49.07-95.211-111.77-60.071-169.09 94.821-288.91 339.11-226.07 484.26-35.82 25.66-59.17 67.66-59.17 115.06 0 78.187 63.37 141.56 141.52 141.56" fill="#fff"/><path d="m1105.7 684.59 238.46 37.219c41.7 6.492 20.8-34.618 39.87-72.219 57.35-113.22 58.41-234.7 26.33-347.51-11.54-40.558-44.24-85.84-100.8-54.137-152.5 85.481-260.51 305.77-203.86 436.65" fill="#393d40"/><path d="m1441.4 536.42c116.57 0 211.66 95.058 211.66 211.66 0 116.54-95.09 211.66-211.66 211.66-116.58 0-211.66-95.117-211.66-211.66 0-116.6 95.08-211.66 211.66-211.66" fill="#fff"/><path d="m1180 660.74c70.3 0 127.63 57.332 127.63 127.62 0 70.34-57.33 127.68-127.63 127.68-70.29 0-127.62-57.34-127.62-127.68 0-70.289 57.33-127.62 127.62-127.62" fill="#393d40"/><path d="m1429.2 560.81c109.87 0 199.47 89.601 199.47 199.44 0 109.86-89.6 199.49-199.47 199.49-109.84 0-199.45-89.629-199.45-199.49 0-109.84 89.61-199.44 199.45-199.44" fill="#393d40"/><path d="m1361.9 626.34c92.81 0 168.51 75.699 168.51 168.51 0 92.847-75.7 168.55-168.51 168.55s-168.54-75.699-168.54-168.55c0-92.813 75.73-168.51 168.54-168.51" fill="#fff"/><path d="m1378 643.85c84.89 0 154.11 69.218 154.11 154.11s-69.22 154.11-154.11 154.11c-84.88 0-154.11-69.218-154.11-154.11s69.23-154.11 154.11-154.11" fill="#393d40"/><path d="m1515.5 453.18c-13.62-104.02 41.29-206.21 142.05-192.32 166.11 26.961 194.26 121.01 128 260.85-14.1 23.258 41.74 46.437 49 4.109 14.98-74.441 54.92-96.3 106.22-94.261 59.22-3.59 97.79 22.332 106.2 91.562 15.92 19.109 57.29 14.149 36.78-75.152-41.61-97.629 17.96-216 133.44-207.59 134.68 12.84 168.49 89.512 172.92 208.96 21.06 253.7-61.44 382.77-221.94 417.95-87.27 10.852-140.35-28.738-160.68-116.1-16.65-31-70.46-24.011-81.69 7.879-27.73 77.668-80.75 107.93-181.1 94.559-145.15-38.82-214.81-172.26-229.2-400.45" fill="#fff"/><path d="m1545 458.26c-12.7-97.043 38.5-192.32 132.5-179.39 154.96 25.141 181.2 112.84 119.41 243.32-13.15 21.668 38.94 43.34 45.72 3.84 13.96-69.48 51.22-89.801 99.07-87.91 55.25-3.371 91.22 20.809 99.07 85.367 14.85 17.844 53.43 13.211 34.3-70.078-38.79-91.082 16.76-201.52 124.48-193.65 125.64 11.988 157.16 83.5 161.33 194.91 19.63 236.66-57.34 357.07-207.05 389.88-81.41 10.148-130.93-26.813-149.89-108.29-15.54-28.903-65.74-22.41-76.2 7.328-25.89 72.441-75.32 100.7-168.94 88.219-135.39-36.219-200.37-160.66-213.8-373.55" fill="#393d40"/><path d="m2636.4 999.1c187.16 0 306.29-174.36 306.29-361.5 0-187.15-151.77-338.92-338.92-338.92-187.16 0-308.81 146.73-308.81 333.87 0 187.19 154.3 366.55 341.44 366.55" fill="#fff"/><path d="m2652.3 958.11c175.07 0 286.55-163.11 286.55-338.19 0-175.11-142-317.06-317.09-317.06-175.07 0-288.88 137.29-288.88 312.36 0 175.07 144.33 342.89 319.42 342.89" fill="#393d40"/><path d="m2653.1 697.89c43.61 0 71.37-40.629 71.37-84.223 0-43.629-35.37-78.996-78.98-78.996-43.62 0-71.97 34.226-71.97 77.808 0 43.59 35.97 85.411 79.58 85.411" fill="#fff"/><path d="m2645.3 697.89c39.33 0 64.35-36.629 64.35-75.961 0-39.328-31.9-71.231-71.2-71.231-39.33 0-64.91 30.86-64.91 70.192 0 39.3 32.43 77 71.76 77" fill="#393d40"/><path d="m1851.5 2945.3c-91.16 126.76-70.57 328.96 26.93 438.66-52.41-105.75-63.45-315.36-26.93-438.66" fill="#fff"/><path d="m2066.8 2945.3c91.14 126.76 70.57 328.96-26.93 438.66 52.39-105.75 63.44-315.36 26.93-438.66" fill="#fff"/></g></g></svg>
